<svg height="512pt" viewBox="0 0 512 512" width="512pt" xmlns="http://www.w3.org/2000/svg"><path d="m0 0h512v512h-512z" fill="#4bb9ec"/><path d="m256 0h256v512h-256zm0 0" fill="#00a0d8"/><path d="m271 61h-150v390h90v-150h60c66.300781 0 120-53.699219 120-120s-53.699219-120-120-120zm0 150h-60v-60h60c16.5 0 30 13.5 30 30s-13.5 30-30 30zm0 0" fill="#deecf1"/><path d="m391 181c0 66.300781-53.699219 120-120 120h-15v-90h15c16.5 0 30-13.5 30-30s-13.5-30-30-30h-15v-90h15c66.300781 0 120 53.699219 120 120zm0 0" fill="#c6e2e7"/></svg>